<svg xmlns="http://www.w3.org/2000/svg" width="66.237" height="47.879" viewBox="0 0 66.237 47.879"><defs><style>.a{fill:#5a5a5a;}</style></defs><path class="a" d="M66.237,106.132V64.247a2.981,2.981,0,0,0-.784-2.013l-.023-.026a2.986,2.986,0,0,0-2.19-.958H3a2.986,2.986,0,0,0-2.188.956l-.026.028A2.982,2.982,0,0,0,0,64.247v41.885a2.982,2.982,0,0,0,.784,2.014l.021.023a2.986,2.986,0,0,0,2.192.96H63.24a2.986,2.986,0,0,0,2.19-.958l.023-.026A2.981,2.981,0,0,0,66.237,106.132ZM14.692,93.89a1.5,1.5,0,0,0-2.119.043L3,103.906V66.473L20.969,85.19l-4.855,5.056a1.5,1.5,0,0,0,2.162,2.076l4.77-4.968,6.915,7.2a4.36,4.36,0,0,0,6.313,0l6.915-7.2,18.031,18.779H5.015l9.72-10.123A1.5,1.5,0,0,0,14.692,93.89Zm19.421-1.41a1.363,1.363,0,0,1-1.99,0L5.015,64.247H61.222Zm11.155-7.29L63.24,66.473v37.434Z" transform="translate(0 -61.25)"/></svg>