<svg xmlns="http://www.w3.org/2000/svg" width="28.778" height="47.029" viewBox="0 0 28.778 47.029"><defs><style>.a{fill:#5a5a5a;}</style></defs><path class="a" d="M54.262,37.17V23.6a11.875,11.875,0,1,0-3.6,0V37.17c-4.426.15-12.591.964-12.591,4.914,0,4.588,11.018,4.945,14.394,4.945s14.383-.356,14.383-4.945C66.854,38.132,58.683,37.319,54.262,37.17Zm-10.073-25.3a8.275,8.275,0,1,1,8.28,8.272A8.287,8.287,0,0,1,44.189,11.871Zm6.478,28.9v1.317a1.791,1.791,0,0,0,.6,1.334,28.545,28.545,0,0,1-8.823-1.333A27.511,27.511,0,0,1,50.667,40.768Zm3,2.65a1.791,1.791,0,0,0,.6-1.334V40.767a27.474,27.474,0,0,1,8.23,1.317A28.5,28.5,0,0,1,53.667,43.418Z" transform="translate(-38.076)"/></svg>