<svg xmlns="http://www.w3.org/2000/svg" width="57.34" height="57.34" viewBox="0 0 57.34 57.34"><defs><style>.a{fill:#5a5a5a;}</style></defs><g transform="translate(0 0)"><path class="a" d="M57.335,46.2a8.482,8.482,0,0,0-2.6-5.828c-3.128-3.016-5.749-4.758-8.248-5.48-3.443-1-6.633-.09-9.479,2.69l-.013.013L33.965,40.6a45.382,45.382,0,0,1-9.549-7.385l-.295-.295a45.386,45.386,0,0,1-7.385-9.548l3.006-3.028.013-.013c2.78-2.846,3.685-6.035,2.69-9.479-.722-2.5-2.463-5.12-5.48-8.248A8.523,8.523,0,0,0,5.137,2.182l-.064.058q-.045.04-.087.083C1.7,5.611-.026,10.214,0,15.634.047,24.842,5.107,35.373,13.538,43.8a54.591,54.591,0,0,0,5.37,4.676,2.24,2.24,0,0,0,2.726-3.555,50.154,50.154,0,0,1-4.928-4.289C9.091,33.021,4.52,23.666,4.48,15.612,4.459,11.437,5.715,7.953,8.112,5.531l.017-.015a4.029,4.029,0,0,1,5.612.2c5.8,6.014,5.379,8.853,2.817,11.48l-4.152,4.183a2.24,2.24,0,0,0-.456,2.489,45.259,45.259,0,0,0,9.006,12.222l.295.294a45.253,45.253,0,0,0,12.221,9.005,2.24,2.24,0,0,0,2.489-.456l4.183-4.152c2.628-2.562,5.467-2.982,11.48,2.817a4.029,4.029,0,0,1,.2,5.611l-.016.018c-2.4,2.377-5.849,3.632-9.979,3.632h-.1a29.044,29.044,0,0,1-11.052-2.616A2.24,2.24,0,0,0,28.9,54.358a33.043,33.043,0,0,0,12.8,2.983h.126c5.366,0,9.923-1.722,13.186-4.985.028-.028.056-.057.083-.087l.058-.065A8.481,8.481,0,0,0,57.335,46.2Z" transform="translate(0 -0.002)"/></g></svg>