<svg xmlns="http://www.w3.org/2000/svg" width="36.408" height="32.363" viewBox="0 0 36.408 32.363"><defs><style>.a{fill:#fff;}</style></defs><path class="a" d="M33.382,19.046,36.37,5.9a1.517,1.517,0,0,0-1.479-1.853H10.063L9.484,1.213A1.517,1.517,0,0,0,8,0H1.517A1.517,1.517,0,0,0,0,1.517V2.528A1.517,1.517,0,0,0,1.517,4.045H5.934l4.44,21.708a3.54,3.54,0,1,0,4.238.541H27.864a3.539,3.539,0,1,0,4.02-.658l.349-1.534a1.517,1.517,0,0,0-1.479-1.853H13.787l-.414-2.023H31.9A1.517,1.517,0,0,0,33.382,19.046Z"/></svg>