<svg xmlns="http://www.w3.org/2000/svg" width="52.82" height="60.366" viewBox="0 0 52.82 60.366"><defs><style>.a{fill:#5c0000;}</style></defs><path class="a" d="M50.934,3.773H36.786l-1.108-2.2A2.83,2.83,0,0,0,33.142,0H19.666a2.8,2.8,0,0,0-2.523,1.568l-1.108,2.2H1.886A1.886,1.886,0,0,0,0,5.659V9.432a1.886,1.886,0,0,0,1.886,1.886H50.934A1.886,1.886,0,0,0,52.82,9.432V5.659A1.886,1.886,0,0,0,50.934,3.773ZM6.272,55.06a5.659,5.659,0,0,0,5.648,5.306H40.9a5.659,5.659,0,0,0,5.647-5.3l2.5-39.97H3.773Z" transform="translate(0 0)"/></svg>